<mxfile host="app.diagrams.net" modified="2023-11-19T17:03:55.918Z" agent="Mozilla/5.0 (Windows NT 10.0; Win64; x64) AppleWebKit/537.36 (KHTML, like Gecko) Chrome/118.0.0.0 Safari/537.36 OPR/104.0.0.0 (Edition Yx GX)" version="22.1.3" etag="dmSEASADEAB8yVMjpGfR" type="github">
  <diagram name="Страница — 1" id="FPNBJRvVzUJWfH8LIz3A">
    <mxGraphModel>
      <root>
        <mxCell id="0" />
        <mxCell id="1" parent="0" />
      </root>
    </mxGraphModel>
  </diagram>
</mxfile>
